<svg width="40" height="40" viewBox="0 0 40 40" fill="none" xmlns="http://www.w3.org/2000/svg">
<path fill-rule="evenodd" clip-rule="evenodd" d="M9.11654 9.1166C9.35092 8.88252 9.66863 8.75104 9.99988 8.75104C10.3311 8.75104 10.6488 8.88252 10.8832 9.1166L30.8832 29.1166C31.006 29.231 31.1045 29.369 31.1728 29.5224C31.2412 29.6757 31.2779 29.8412 31.2809 30.0091C31.2838 30.1769 31.2529 30.3436 31.1901 30.4993C31.1272 30.6549 31.0336 30.7963 30.9149 30.915C30.7962 31.0337 30.6549 31.1273 30.4992 31.1901C30.3436 31.253 30.1768 31.2839 30.009 31.2809C29.8412 31.278 29.6756 31.2412 29.5223 31.1729C29.369 31.1046 29.231 31.0061 29.1165 30.8833L9.11654 10.8833C8.88246 10.6489 8.75098 10.3312 8.75098 9.99994C8.75098 9.66869 8.88246 9.35098 9.11654 9.1166Z" fill="black"/>
<path fill-rule="evenodd" clip-rule="evenodd" d="M30.8834 9.11667C31.1175 9.35104 31.249 9.66875 31.249 10C31.249 10.3312 31.1175 10.649 30.8834 10.8833L10.8834 30.8833C10.6464 31.1041 10.333 31.2243 10.0092 31.2186C9.68536 31.2129 9.37639 31.0817 9.14737 30.8527C8.91834 30.6237 8.78716 30.3147 8.78144 29.9909C8.77573 29.667 8.89594 29.3536 9.11674 29.1167L29.1167 9.11667C29.3511 8.88258 29.6688 8.7511 30.0001 8.7511C30.3313 8.7511 30.649 8.88258 30.8834 9.11667Z" fill="#212121"/>
</svg>
