<svg width="25" height="24" viewBox="0 0 25 24" fill="none" xmlns="http://www.w3.org/2000/svg">
<path d="M4.3916 21C3.69541 21 3.02773 20.7234 2.53545 20.2311C2.04316 19.7388 1.7666 19.0711 1.7666 18.375V14.625C1.7666 14.3266 1.88513 14.0404 2.09611 13.8295C2.30708 13.6185 2.59323 13.5 2.8916 13.5C3.18997 13.5 3.47612 13.6185 3.6871 13.8295C3.89808 14.0404 4.0166 14.3266 4.0166 14.625V18.375C4.0166 18.582 4.1846 18.75 4.3916 18.75H20.1416C20.2411 18.75 20.3364 18.7104 20.4068 18.6401C20.4771 18.5698 20.5166 18.4744 20.5166 18.375V14.625C20.5166 14.3266 20.6351 14.0404 20.8461 13.8295C21.0571 13.6185 21.3432 13.5 21.6416 13.5C21.94 13.5 22.2261 13.6185 22.4371 13.8295C22.6481 14.0404 22.7666 14.3266 22.7666 14.625V18.375C22.7666 19.0711 22.49 19.7388 21.9978 20.2311C21.5055 20.7234 20.8378 21 20.1416 21H4.3916Z" fill="#0243BA"/>
<path d="M11.1419 11.5335V2.99995C11.1419 2.70159 11.2604 2.41544 11.4714 2.20446C11.6824 1.99348 11.9685 1.87495 12.2669 1.87495C12.5652 1.87495 12.8514 1.99348 13.0624 2.20446C13.2734 2.41544 13.3919 2.70159 13.3919 2.99995V11.5335L16.3469 8.57995C16.4513 8.47555 16.5752 8.39274 16.7116 8.33624C16.848 8.27974 16.9942 8.25066 17.1419 8.25066C17.2895 8.25066 17.4357 8.27974 17.5721 8.33624C17.7085 8.39274 17.8325 8.47555 17.9369 8.57995C18.0413 8.68436 18.1241 8.8083 18.1806 8.9447C18.2371 9.08111 18.2662 9.22731 18.2662 9.37495C18.2662 9.5226 18.2371 9.6688 18.1806 9.80521C18.1241 9.94161 18.0413 10.0656 17.9369 10.17L13.0619 15.045C12.9575 15.1495 12.8336 15.2324 12.6972 15.2889C12.5608 15.3455 12.4146 15.3746 12.2669 15.3746C12.1192 15.3746 11.973 15.3455 11.8366 15.2889C11.7002 15.2324 11.5762 15.1495 11.4719 15.045L6.59688 10.17C6.49248 10.0656 6.40966 9.94161 6.35316 9.80521C6.29666 9.6688 6.26758 9.5226 6.26758 9.37495C6.26758 9.22731 6.29666 9.08111 6.35316 8.9447C6.40966 8.8083 6.49248 8.68436 6.59688 8.57995C6.70128 8.47555 6.82522 8.39274 6.96163 8.33624C7.09803 8.27974 7.24423 8.25066 7.39188 8.25066C7.53952 8.25066 7.68572 8.27974 7.82213 8.33624C7.95853 8.39274 8.08248 8.47555 8.18688 8.57995L11.1419 11.5335Z" fill="#0243BA"/>
</svg>
