<svg width="25" height="24" viewBox="0 0 25 24" fill="none" xmlns="http://www.w3.org/2000/svg">
<path d="M3.9919 19.7501C4.04476 19.7501 4.09763 19.7448 4.15049 19.7369L8.5964 18.9571C8.64927 18.9465 8.69949 18.9227 8.7365 18.8831L19.9411 7.67844C19.9656 7.65399 19.9851 7.62494 19.9984 7.59297C20.0116 7.56099 20.0184 7.52671 20.0184 7.4921C20.0184 7.45748 20.0116 7.4232 19.9984 7.39122C19.9851 7.35925 19.9656 7.3302 19.9411 7.30575L15.5481 2.91006C15.4979 2.85984 15.4318 2.8334 15.3604 2.8334C15.2891 2.8334 15.223 2.85984 15.1728 2.91006L3.96811 14.1147C3.92846 14.1544 3.90467 14.2019 3.8941 14.2548L3.11435 18.7007C3.08863 18.8423 3.09782 18.988 3.14111 19.1253C3.18441 19.2625 3.2605 19.3872 3.36281 19.4884C3.53726 19.6576 3.75665 19.7501 3.9919 19.7501ZM5.77344 15.1403L15.3604 5.55593L17.2979 7.49342L7.71092 17.0778L5.36109 17.4928L5.77344 15.1403Z" fill="white"/>
</svg>
