<svg width="28" height="28" viewBox="0 0 28 28" fill="none" xmlns="http://www.w3.org/2000/svg">
<g clip-path="url(#clip0_74_10211)">
<path d="M4.78849 21.0129H23.3574C23.9957 21.0129 24.518 20.4907 24.518 19.8524C24.518 19.2141 23.9957 18.6918 23.3574 18.6918H4.78849C4.15018 18.6918 3.62793 19.2141 3.62793 19.8524C3.62793 20.4907 4.15018 21.0129 4.78849 21.0129ZM4.78849 15.2102H23.3574C23.9957 15.2102 24.518 14.6879 24.518 14.0496C24.518 13.4113 23.9957 12.889 23.3574 12.889H4.78849C4.15018 12.889 3.62793 13.4113 3.62793 14.0496C3.62793 14.6879 4.15018 15.2102 4.78849 15.2102ZM3.62793 8.2468C3.62793 8.88511 4.15018 9.40736 4.78849 9.40736H23.3574C23.9957 9.40736 24.518 8.88511 24.518 8.2468C24.518 7.60849 23.9957 7.08624 23.3574 7.08624H4.78849C4.15018 7.08624 3.62793 7.60849 3.62793 8.2468Z" fill="black"/>
</g>
<defs>
<clipPath id="clip0_74_10211">
<rect width="27.8534" height="27.8534" fill="white" transform="translate(0.146484 0.122864)"/>
</clipPath>
</defs>
</svg>
