<svg width="156" height="37" viewBox="0 0 156 37" fill="none" xmlns="http://www.w3.org/2000/svg">
<g clip-path="url(#clip0_74_8546)">
<rect width="156" height="36.0992" rx="7.64972" fill="white"/>
<g clip-path="url(#clip1_74_8546)">
<path d="M149.401 19.7042C147.051 19.7042 145.077 17.5955 145.077 15.0867C145.077 12.5779 147.027 10.4427 149.401 10.4427C151.775 10.4427 153.753 12.5514 153.753 15.195C153.753 17.6508 151.777 19.7064 149.401 19.7064M146.892 27.0449H148.921L153.38 20.4513C155.168 17.8077 155.541 16.8462 155.541 15.1398C155.541 11.6429 152.818 8.84016 149.401 8.84016C145.984 8.84016 143.287 11.6695 143.287 15.1132C143.287 18.557 145.957 21.3333 149.052 21.3333C149.719 21.3333 150.254 21.2272 151.028 20.9067L146.89 27.0471L146.892 27.0449ZM112.761 15.646C112.761 14.3639 113.055 13.0289 113.456 12.3613C114.15 11.2406 115.511 10.4383 116.738 10.4383C117.859 10.4383 119.114 11.1058 119.835 12.0673C120.396 12.8144 120.717 14.1495 120.717 15.6437V20.2878C120.717 21.9168 120.502 23.0905 120.076 23.8111C119.329 25.0666 118.153 25.7607 116.738 25.7607C115.429 25.7607 114.388 25.1993 113.588 24.1051C113 23.305 112.759 22.129 112.759 20.2878V15.6437L112.761 15.646ZM122.505 15.2459C122.505 11.5346 120.076 8.83795 116.738 8.83795C115.056 8.83795 113.456 9.61159 112.386 10.9201C111.398 12.0939 110.971 13.4289 110.971 15.2459V20.584C110.971 22.3987 111.265 23.6542 111.906 24.6953C113 26.4039 114.735 27.3654 116.738 27.3654C118.579 27.3654 120.182 26.5653 121.302 25.0688C122.158 23.9217 122.505 22.6131 122.505 20.584V15.2459ZM133.623 8.83795L126.809 22.16V23.7625H135.831V27.0449H137.62V23.7625H139.249V22.16H137.62V15.8736H135.831V22.16H128.608L135.422 8.83795H133.623ZM94.6297 27.0449H106.002V25.4424H97.0323L102.826 19.9164C105.255 17.6198 106.082 16.1521 106.082 14.2844C106.082 11.2672 103.599 8.83795 100.529 8.83795C97.1384 8.83795 94.7623 11.2406 94.7623 14.6844V14.9254H96.524C96.5505 13.8047 96.6566 13.1106 97.0036 12.4696C97.6446 11.2406 99.0062 10.4405 100.421 10.4405C102.53 10.4405 104.291 12.1756 104.291 14.2313C104.291 15.1928 103.865 16.1809 103.036 17.1954C102.583 17.7569 102.209 18.1304 100.901 19.3837L94.6274 25.4446V27.0471L94.6297 27.0449Z" fill="#000E14"/>
<path fill-rule="evenodd" clip-rule="evenodd" d="M23.7069 8.53955C18.5169 8.53955 13.9458 12.7437 13.9458 18.0022C13.9458 23.2607 18.3467 27.6638 23.7312 27.6638C29.1157 27.6638 33.468 23.4088 33.468 18.1017C33.468 12.7946 28.9963 8.53955 23.7069 8.53955ZM23.7312 24.3306C20.2543 24.3306 17.4515 21.53 17.4515 18.0531C17.4515 14.5761 20.3493 11.875 23.7047 11.875C27.06 11.875 29.9579 14.6999 29.9579 18.1282C29.9579 21.5565 27.1043 24.3328 23.729 24.3328L23.7312 24.3306Z" fill="#000E14"/>
<path fill-rule="evenodd" clip-rule="evenodd" d="M3.82819 12.1712H-0.00683594V8.83795H11.1711V12.1712H7.33608V27.3654H3.82819V12.1712Z" fill="#000E14"/>
<path fill-rule="evenodd" clip-rule="evenodd" d="M41.5328 22.1909V27.3654H38.0249V8.83795H41.5328V16.7313V22.1909Z" fill="#000E14"/>
<path fill-rule="evenodd" clip-rule="evenodd" d="M45.0232 18.1017L52.4325 8.83795H47.9211L42.2603 16.0107V18.1017V20.1927L47.9321 27.3654H52.4435L45.0232 18.1017Z" fill="#000E14"/>
<path fill-rule="evenodd" clip-rule="evenodd" d="M56.5415 12.1712V8.83795H67.5227V12.1712H60.0494H56.5415Z" fill="#000E14"/>
<path fill-rule="evenodd" clip-rule="evenodd" d="M60.0494 16.3355H67.2729V19.6688H60.0494V24.0321H67.5227V27.3654H56.5415V16.3355H60.0494Z" fill="#000E14"/>
<path fill-rule="evenodd" clip-rule="evenodd" d="M84.3425 20.6039V8.83795H87.8504V27.3654H84.7735L76.2193 14.7441V27.3654H72.7114V8.83795H76.3851L84.3425 20.6039Z" fill="#000E14"/>
</g>
</g>
<defs>
<clipPath id="clip0_74_8546">
<rect width="156" height="36.0992" rx="7.64972" fill="white"/>
</clipPath>
<clipPath id="clip1_74_8546">
<rect width="155.547" height="19.1243" fill="white" transform="translate(-0.00732422 8.53955)"/>
</clipPath>
</defs>
</svg>
