<svg xmlns="http://www.w3.org/2000/svg" width="1585" height="270" viewBox="0 0 1585 270">
  <defs>
    <style>
      .cls-1 {
        fill-rule: evenodd;
      }
    </style>
  </defs>
  <path class="cls-1" d="M624.872,118.572h-33.19V223.334h103.9V191.671H624.872V150.233h68.346V118.572H624.872ZM56.566,47.362V79.025H92.86V223.334h33.195V79.025h36.294V47.362H56.566Zm359.888,0V223.334h33.193V47.362H416.454Zm93.641,0-53.559,68.13V155.2l53.672,68.13H552.9L482.68,135.349l70.108-87.987H510.1Zm81.587,0V79.025h103.9V47.362h-103.9Zm263.051,0V159.126l-75.3-111.764H744.667V223.334h33.194V103.466L858.82,223.334h29.1V47.362H854.733ZM221.779,134.877c0-32.048,27.419-58.693,59.179-58.693,32.437,0,59.178,26.841,59.178,59.4,0,32.115-27.005,58.928-58.942,58.928a59.406,59.406,0,0,1-59.415-59.635m-33.188-.477c0,51.449,41.64,91.771,92.6,91.771,49.856,0,92.133-40.4,92.133-90.822,0-50.691-42.314-90.824-92.369-90.824-49.112,0-92.367,39.939-92.367,89.875M1470.37,150.562c-22.23,0-40.92-20.03-40.92-43.866,0-24.342,18.44-44.122,40.92-44.122,22.74,0,41.18,20.034,41.18,45.138,0,23.326-18.7,42.85-41.18,42.85m-23.75,69.729h19.2l42.19-62.627c16.92-25.106,20.46-34.233,20.46-50.46,0-33.219-25.77-59.843-58.1-59.843-31.83,0-57.85,26.88-57.85,59.587,0,31.7,25.26,59.081,54.56,59.081,6.32,0,11.37-1.012,18.7-4.054ZM1123.66,112.02c0-12.171,2.78-24.852,6.57-31.188,6.57-10.651,19.45-18.258,31.07-18.258,10.61,0,22.48,6.339,29.3,15.47,5.31,7.1,8.34,19.78,8.34,33.976v44.12q0,23.205-6.06,33.473c-7.07,11.917-18.19,18.51-31.58,18.51-12.38,0-22.23-5.325-29.81-15.724-5.56-7.6-7.83-18.761-7.83-36.259V112.02Zm92.21-3.8c0-35.247-22.99-60.857-54.57-60.857a53.3,53.3,0,0,0-41.18,19.78c-9.34,11.157-13.39,23.834-13.39,41.077v50.713c0,17.241,2.78,29.16,8.85,39.051,10.35,16.227,26.77,25.354,45.72,25.354,17.43,0,32.59-7.607,43.2-21.806,8.08-10.9,11.37-23.33,11.37-42.6V108.218Zm105.21-60.857L1256.6,173.89v15.217h85.38v31.184h16.92V189.107h15.41V173.89H1358.9V114.17h-16.92v59.72h-68.36L1338.1,47.361h-17.02ZM952.074,220.291H1059.69V205.08H974.811l54.819-52.486c22.99-21.81,30.82-35.757,30.82-53.5,0-28.652-23.5-51.728-52.55-51.728-32.077,0-54.562,22.82-54.562,55.533v2.28h16.674c0.249-10.651,1.262-17.242,4.548-23.328,6.061-11.665,18.944-19.272,32.33-19.272,19.96,0,36.63,16.482,36.63,36.007,0,9.131-4.04,18.512-11.87,28.145-4.3,5.324-7.83,8.876-20.21,20.791L952.074,205.08v15.211Z"/>
</svg>
