<svg width="267" height="90" viewBox="0 0 267 90" fill="none" xmlns="http://www.w3.org/2000/svg">
<g clip-path="url(#clip0_83_24)">
<path d="M89.7682 0.895548H82.0544V0.892048L72.3806 13.2013V20.3761L82.0789 32.6853H89.7892L77.102 16.7887L89.7682 0.895548Z" fill="black"/>
<path d="M71.1346 0.892048H65.1392V32.6853H71.1346V0.892048Z" fill="black"/>
<path d="M102.791 19.4801H115.139V13.7578H96.796V32.6853H115.566V26.9664H102.791V19.4801Z" fill="black"/>
<path d="M0.117676 6.61442H6.67653V32.6853H12.6719V6.61442H19.2272V0.892048H0.117676V6.61442Z" fill="black"/>
<path d="M40.6573 0.381042C31.785 0.381042 23.9696 7.59788 23.9696 16.6172C23.9696 25.913 31.491 33.1963 40.6993 33.1963C49.9075 33.1963 57.3449 25.8955 57.3449 16.7887C57.3449 7.62938 49.7011 0.381042 40.6573 0.381042ZM40.7028 27.4774C39.2888 27.4774 37.8888 27.1974 36.5833 26.6584C35.2779 26.116 34.0949 25.3215 33.0974 24.3205C32.1 23.3195 31.309 22.133 30.7735 20.8241C30.2345 19.5186 29.9615 18.1151 29.9685 16.7047C29.9685 10.9158 34.9209 6.09991 40.6608 6.09991C46.4006 6.09991 51.353 10.9473 51.353 16.8307C51.353 22.714 46.4741 27.4774 40.7028 27.4774Z" fill="black"/>
<path d="M235.407 12.9633H232.348V23.7535H219.997L231.648 0.892048H228.572L216.924 23.7535V26.501H232.348V32.1358H235.407V26.501H238.189V23.7535H235.407V12.9633Z" fill="black"/>
<path d="M255.545 0.892048C249.795 0.892048 245.095 5.74994 245.095 11.6578C245.095 17.5657 249.659 22.3326 254.95 22.3326C256.091 22.3326 257.005 22.1506 258.328 21.6011L251.254 32.1358H254.723L262.346 20.8206C265.405 16.2847 266.042 14.6362 266.042 11.7033C266.042 5.70094 261.387 0.892048 255.545 0.892048ZM255.545 19.5396C251.531 19.5396 248.154 15.9207 248.154 11.6158C248.154 7.31089 251.486 3.64298 255.545 3.64298C259.605 3.64298 262.983 7.26189 262.983 11.7978C262.983 16.0117 259.605 19.5396 255.545 19.5396Z" fill="black"/>
<path d="M115.566 0.892048H96.796V6.61092H115.566V0.892048Z" fill="black"/>
<path d="M199.704 0.892048C198.276 0.899048 196.869 1.22454 195.581 1.84053C194.293 2.46001 193.163 3.35599 192.263 4.46547C190.576 6.48142 189.845 8.77037 189.845 11.8853V21.0481C189.845 24.163 190.349 26.3155 191.444 28.1039C193.317 31.0369 196.281 32.6853 199.704 32.6853C202.854 32.6853 205.591 31.3099 207.509 28.7444C208.968 26.774 209.563 24.5305 209.563 21.0481V11.8853C209.563 5.51894 205.409 0.892048 199.704 0.892048ZM206.504 20.5476C206.504 23.3405 206.14 25.3565 205.409 26.5955C204.132 28.7479 202.123 29.9379 199.704 29.9379C197.468 29.9379 195.69 28.9754 194.321 27.0995C193.317 25.724 192.907 23.708 192.907 20.5476V12.5748C192.907 10.3768 193.411 8.08438 194.094 6.93991C195.28 5.01495 197.608 3.63949 199.708 3.63949C201.626 3.63949 203.771 4.78396 205.003 6.43592C205.962 7.71689 206.508 10.0093 206.508 12.5748V20.5441L206.504 20.5476Z" fill="black"/>
<path d="M181.487 10.2403C181.487 5.06392 177.242 0.895515 171.992 0.895515C166.196 0.895515 162.133 5.01842 162.133 10.9298V11.3428H165.146C165.191 9.41782 165.373 8.22785 165.968 7.12887C167.064 5.02192 169.391 3.64645 171.81 3.64645C175.415 3.64645 178.428 6.62488 178.428 10.1493C178.428 11.7978 177.7 13.4952 176.283 15.2347C175.506 16.1972 174.869 16.8377 172.632 18.9901L161.905 29.3919V32.1393H181.347V29.3919H166.01L175.915 19.9106C180.07 15.9697 181.484 13.4497 181.484 10.2438L181.487 10.2403Z" fill="black"/>
<path d="M144.321 21.0866L130.717 0.892048H124.435V32.6853H130.43V11.0313L145.056 32.6853H150.317V0.892048H144.321V21.0866Z" fill="black"/>
<path d="M13.4438 90.3678C9.03607 90.3678 5.74312 89.2016 3.59928 86.8519C1.43828 84.5023 0.272033 80.7634 0.117676 75.6353L8.91601 74.2976C8.95031 77.2132 9.31048 79.3227 9.96221 80.6433C10.6311 81.9639 11.6258 82.6157 12.9464 82.6157C14.6787 82.6157 15.5534 81.5009 15.5534 79.2541C15.5534 78.0021 15.3304 76.853 14.8845 75.7897C14.4386 74.7263 13.8897 73.8345 13.238 73.0798C12.5863 72.3252 11.6773 71.4505 10.4939 70.4386L6.3777 66.8713C5.38296 66.0137 4.55972 65.2248 3.90799 64.5216C3.25626 63.8184 2.62169 62.9609 1.98711 61.9833C1.35253 61.0057 0.90661 59.9081 0.597897 58.7247C0.306334 57.5241 0.151977 56.2035 0.151977 54.78C0.151977 50.9211 1.31823 47.9197 3.63358 45.8102C5.94893 43.7006 9.12182 42.6373 13.1694 42.6201C14.5586 42.6201 15.8106 42.7745 16.9426 43.066C18.0745 43.3576 19.0178 43.7521 19.8067 44.2494C20.5785 44.7297 21.2646 45.3471 21.8477 46.0846C22.4308 46.8221 22.8939 47.5595 23.254 48.297C23.5971 49.0345 23.8886 49.8749 24.1287 50.7839C24.3688 51.71 24.5232 52.5504 24.6089 53.3222C24.6947 54.094 24.7462 54.9172 24.7976 55.7919L15.9135 56.941C15.8964 56.1521 15.8792 55.5003 15.8449 54.9858C15.8106 54.4713 15.7592 53.9225 15.6906 53.3393C15.622 52.7562 15.519 52.2931 15.3818 51.933C15.2446 51.5728 15.0731 51.2469 14.8673 50.9382C14.6444 50.6295 14.3871 50.4066 14.0612 50.2865C13.7354 50.1493 13.3409 50.0978 12.895 50.115C12.0031 50.1321 11.3171 50.5095 10.8369 51.2469C10.3567 51.9844 10.1166 52.8077 10.1166 53.7338C10.1166 54.6085 10.2195 55.4146 10.4424 56.1349C10.6482 56.8552 11.0256 57.5413 11.5572 58.2273C12.0889 58.8962 12.5177 59.4107 12.8607 59.7366C13.2037 60.0796 13.7525 60.5941 14.5415 61.3144L18.4861 64.796C19.5666 65.7736 20.5099 66.6998 21.2817 67.5916C22.0706 68.4834 22.8081 69.4953 23.5285 70.6101C24.2316 71.7421 24.7805 72.9769 25.1406 74.3319C25.5008 75.6868 25.6894 77.1446 25.6894 78.6881C25.6894 82.0497 24.5746 84.8453 22.3279 87.0577C20.0297 89.2702 17.0969 90.3678 13.4438 90.3678ZM30.6803 89.7332V43.2718H40.9365V89.7332H30.6803ZM47.8311 89.7332V43.2718H55.0687L64.6216 65.585V43.2718H73.1456V89.7332H66.1995L56.6122 65.6879V89.7332H47.8311ZM92.08 90.4021C89.7304 90.4021 87.7066 90.0248 86.0429 89.2702C84.3793 88.5155 83.0416 87.4007 82.0811 85.9429C81.1035 84.4851 80.4003 82.8043 79.9716 80.9006C79.5256 78.9969 79.3198 76.7844 79.3198 74.2804V58.8447C79.3198 56.7866 79.457 54.9515 79.7486 53.3222C80.0402 51.6929 80.5204 50.2007 81.1721 48.8458C81.841 47.4738 82.6985 46.359 83.7619 45.45C84.8252 44.5581 86.1458 43.855 87.7409 43.3576C89.3359 42.8602 91.171 42.6201 93.2634 42.6201C95.2872 42.6201 97.0709 42.8431 98.6144 43.2718C100.158 43.7006 101.461 44.3009 102.491 45.0727C103.52 45.8445 104.377 46.7877 105.029 47.9368C105.681 49.0859 106.144 50.338 106.435 51.6929C106.71 53.0478 106.864 54.557 106.864 56.255V59.2049H96.8136V55.4832C96.8136 54.78 96.7965 54.1969 96.7793 53.751C96.745 53.305 96.6764 52.8077 96.5563 52.2588C96.4363 51.71 96.2648 51.2984 96.0247 50.9897C95.7846 50.6981 95.4587 50.4409 95.0128 50.2179C94.5669 49.9949 94.0352 49.892 93.4006 49.892C92.7489 49.892 92.1829 50.0121 91.737 50.2522C91.2739 50.4923 90.9309 50.7839 90.6908 51.1269C90.4507 51.4699 90.262 51.933 90.1248 52.5161C89.9876 53.0992 89.9019 53.6309 89.8676 54.094C89.8333 54.5742 89.8332 55.1573 89.8332 55.8433V77.1103C89.8332 78.9626 90.1077 80.4204 90.6565 81.5009C91.2053 82.5814 92.2172 83.113 93.675 83.113C96.3677 83.113 97.7054 81.0549 97.7054 76.9216V71.7078H93.5035V65.5678H106.984V89.7332H100.175L99.592 85.84C98.2028 88.8757 95.716 90.4021 92.08 90.4021ZM111.083 89.7332L119.881 43.2718H131.475L140.222 89.7332H130.755L129.16 79.8715H122.385L120.808 89.7332H111.083ZM123.277 73.7316H128.234L125.747 55.7404L123.277 73.7316ZM144.887 89.7332V43.2718H160.391C164.508 43.2718 167.578 44.4209 169.619 46.7191C171.659 49.0173 172.671 52.3617 172.671 56.7523C172.671 58.4846 172.517 60.0453 172.208 61.4345C171.9 62.8237 171.454 63.99 170.853 64.9332C170.253 65.8937 169.567 66.6998 168.778 67.3515C167.989 68.0204 167.08 68.5349 166.034 68.9122C164.988 69.2895 163.924 69.5468 162.827 69.7183C161.729 69.8727 160.529 69.9584 159.191 69.9584H155.16V89.7332H144.887ZM155.143 62.8066H158.419C160.271 62.8066 161.489 62.3263 162.107 61.383C162.707 60.4397 163.016 58.8447 163.016 56.5808C163.016 55.7747 162.998 55.1059 162.947 54.557C162.895 54.0082 162.793 53.4594 162.604 52.9106C162.432 52.3446 162.175 51.8987 161.849 51.5728C161.523 51.2469 161.06 50.9725 160.494 50.7667C159.911 50.5609 159.208 50.458 158.385 50.458H155.126V62.8066H155.143ZM190.783 90.3678C188.21 90.3678 185.998 90.0248 184.18 89.3388C182.362 88.6527 180.904 87.6408 179.84 86.2859C178.76 84.931 177.988 83.336 177.508 81.5009C177.028 79.6657 176.788 77.5047 176.788 75.035V57.8843C176.788 55.3803 177.028 53.2193 177.508 51.4013C177.988 49.5833 178.76 47.9883 179.84 46.6505C180.921 45.3128 182.362 44.3009 184.18 43.632C185.998 42.9631 188.193 42.6201 190.783 42.6201C195.808 42.6201 199.409 43.9064 201.588 46.479C203.766 49.0516 204.846 52.8591 204.846 57.9014V75.0522C204.846 80.0945 203.766 83.9191 201.588 86.4917C199.409 89.0815 195.808 90.3678 190.783 90.3678ZM189.205 82.7872C189.651 83.0101 190.165 83.1302 190.783 83.1302C191.4 83.1302 191.932 83.0273 192.378 82.8043C192.824 82.5814 193.167 82.3241 193.407 81.9982C193.647 81.6724 193.835 81.2436 193.99 80.7291C194.127 80.2146 194.213 79.7172 194.247 79.2541C194.281 78.791 194.298 78.2422 194.298 77.6076V55.3117C194.298 54.6942 194.281 54.1626 194.247 53.6995C194.213 53.2364 194.127 52.7562 193.99 52.2417C193.853 51.7272 193.664 51.3155 193.407 50.9897C193.167 50.6638 192.824 50.4066 192.378 50.1836C191.932 49.9606 191.4 49.8577 190.783 49.8577C190.165 49.8577 189.633 49.9606 189.205 50.1836C188.759 50.4066 188.433 50.6638 188.176 50.9725C187.936 51.2812 187.747 51.6929 187.61 52.2417C187.472 52.7734 187.404 53.2536 187.37 53.6823C187.335 54.1111 187.335 54.6599 187.335 55.3117V77.5905C187.335 78.2422 187.352 78.791 187.37 79.237C187.404 79.6829 187.472 80.1631 187.61 80.6948C187.747 81.2265 187.936 81.6552 188.176 81.9639C188.416 82.2898 188.759 82.5471 189.205 82.7872ZM211.02 89.7332V43.2718H223.695C225.65 43.2718 227.399 43.3919 228.909 43.6149C230.418 43.8378 231.841 44.2323 233.162 44.7983C234.483 45.3642 235.58 46.1017 236.438 47.0107C237.295 47.9197 237.964 49.1031 238.462 50.5438C238.942 51.9844 239.182 53.6652 239.182 55.5861C239.182 58.6389 238.77 61.0743 237.947 62.9266C237.124 64.7789 235.632 66.2195 233.488 67.2486L239.885 89.7504H229.269L224.175 68.9637H221.294V89.7332H211.02ZM221.277 63.0295H223.918C226.01 63.0295 227.485 62.4807 228.343 61.4002C229.2 60.3197 229.629 58.6732 229.629 56.4951C229.629 54.3512 229.235 52.7562 228.463 51.71C227.691 50.681 226.353 50.1493 224.449 50.1493H221.277V63.0295ZM245.322 89.7332V43.2718H266.194V50.2865H255.578V61.7775H263.673V68.9294H255.578V82.8043H266.314V89.7332H245.322Z" fill="black"/>
</g>
<defs>
<clipPath id="clip0_83_24">
<rect width="266.197" height="90.021" fill="white" transform="translate(0.117676 0.381042)"/>
</clipPath>
</defs>
</svg>
